 http://img228.imageshack.us/img228/4903/3zwn9.jpg

Country.......: USA, Canada
Genre.........: Fantasy, Thriller, Horror
Date release..: 07.03.2011 [World]
Director......: Catherine Hardwicke
Writers.......: David Johnson
Duration......: 104 min.
More..........: http://www.imdb.com/title/tt1486185
Trailer.......: http://www.imdb.com/video/imdb/vi2514656025
Trailer.......:

Pilot :
Set in a medieval village that is haunted by a werewolf, a young girl falls for an orphaned woodcutter, much to her family's displeasure. 

Cats :
Amanda Seyfried   	 ...  	Valerie
Gary Oldman 	... 	Father Solomon
Billy Burke 	... 	Cesaire
Shiloh Fernandez 	... 	Peter
Max Irons 	... 	Henry Lazar
Virginia Madsen 	... 	Suzette
Lukas Haas 	... 	Father Auguste
Julie Christie 	... 	Grandmother
Shauna Kain 	... 	Roxanne
Michael Hogan 	... 	The Reeve
Adrian Holmes 	... 	Captain
Cole Heppell 	... 	Claude
Christine Willes 	... 	Madame Lazar
Michael Shanks 	... 	Adrien Lazar
Kacey Rohl 	... 	Prudence 

Data Technical :
!!! SAMPLE !!!
Audio.....: English
Subtitles.: English .srt, French .srt, Spanish .srt, Swedish .srt, Dutch .srt, Polish .txt
Format/Info                      : Audio Video Interleave
File size                        : 700 MiB
Duration                         : 1h 44mn
Overall bit rate                 : 939 Kbps
Writing application              : VirtualDubMod 1.5.10.2 (build 2540/release)
Writing library                  : VirtualDubMod build 2540/release
Video
ID                               : 0
Format                           : MPEG-4 Visual
Format profile                   : Advanced Simple@L5
Format settings, BVOP            : Yes
Format settings, QPel            : No
Format settings, GMC             : No warppoints
Format settings, Matrix          : Default (MPEG)
Codec ID                         : XVID
Codec ID/Hint                    : XviD
Duration                         : 1h 44mn
Bit rate                         : 807 Kbps
Width                            : 640 pixels
Height                           : 272 pixels
Display aspect ratio             : 2.35:1
Frame rate                       : 23.976 fps
Color space                      : YUV
Chroma subsampling               : 4:2:0
Bit depth                        : 8 bits
Scan type                        : Progressive
Bits/(Pixel*Frame)               : 0.193
Stream size                      : 601 MiB (86%)
Writing library                  : XviD 1.2.1 (UTC 2008-12-04)
Audio
ID                               : 1
Format                           : MPEG Audio
Format version                   : Version 1
Format profile                   : Layer 3
Mode                             : Joint stereo
Mode extension                   : MS Stereo
Codec ID                         : 55
Codec ID/Hint                    : MP3
Duration                         : 1h 39mn
Bit rate mode                    : Variable
Bit rate                         : 128 Kbps
Channel(s)                       : 2 channels
Sampling rate                    : 48.0 KHz
Stream size                      : 89.2 MiB (13%)
Alignment                        : Aligned on interleaves
Interleave, duration             : 25 ms (0.60 video frame)
Interleave, preload duration     : 147 ms
Writing library                  : LAME3.90.
Encoding settings                : -m j -V 4 -q 2 -lowpass 17.6 --abr 128

Screen : 
http://img833.imageshack.us/img833/1641/redridinghood2011s1.jpg 
http://img577.imageshack.us/img577/7308/redridinghood2011s2.jpg 
http://img32.imageshack.us/img32/4192/redridinghood2011s3.jpg 
http://img20.imageshack.us/img20/7476/redridinghood2011s4.jpg 
http://img715.imageshack.us/img715/3937/redridinghood2011s5.jpg